<?xml version="1.0" encoding="UTF-8"?>
<!-- Generator: Adobe Illustrator 26.2.1, SVG Export Plug-In . SVG Version: 6.00 Build 0)  -->
<svg xmlns="http://www.w3.org/2000/svg" xmlns:xlink="http://www.w3.org/1999/xlink" version="1.1" id="Icons" x="0px" y="0px" viewBox="0 0 90 90" style="enable-background:new 0 0 90 90;" xml:space="preserve">
<style type="text/css">
	.st0{fill:#E9E7E5;}
	.st1{fill:#9AB874;}
</style>
<circle class="st0" cx="45" cy="45" r="45"></circle>
<g>
	<path class="st1" d="M22.1,71.3c0.3,0,0.5-0.1,0.7-0.3l43.7-43.7c0.4-0.4,0.4-1,0-1.4s-1-0.4-1.4,0L21.4,69.6c-0.4,0.4-0.4,1,0,1.4   C21.6,71.2,21.9,71.3,22.1,71.3L22.1,71.3z"></path>
	<path class="st1" d="M63,70.6c2,0,3.8-1,4.9-2.6c0.7-1,1-2.1,1-3.3c0-1.2-0.4-2.3-1-3.3L59,48.2l-3.2-4.7c-0.3-0.5-0.9-0.6-1.4-0.3   c-0.5,0.3-0.6,0.9-0.3,1.4l2.2,3.3h-5.9c-0.5,0-1,0.4-1,1s0.4,1,1,1h7.3l8.4,12.6c0.5,0.7,0.7,1.4,0.7,2.2c0,0.8-0.2,1.5-0.7,2.2   c-0.7,1.1-1.9,1.7-3.2,1.7H30.1c-0.5,0-1,0.4-1,1s0.4,1,1,1L63,70.6L63,70.6z"></path>
	<path class="st1" d="M39.8,18.7c-1.9,0-3.4,1.5-3.4,3.4v1.2c0,1.5,1,2.8,2.4,3.3v13c0,0.3-0.1,0.6-0.3,0.8l-13.2,19   c-0.3,0.4-0.2,1.1,0.2,1.4c0.2,0.1,0.4,0.2,0.6,0.2c0.3,0,0.6-0.1,0.8-0.4l7.4-10.7h3c0.5,0,1-0.4,1-1s-0.4-1-1-1h-1.6l4.4-6.3   c0.4-0.6,0.6-1.2,0.6-2V26.8H51v7.5c0,0.5,0.4,1,1,1s1-0.4,1-1v-7.6c1.4-0.4,2.4-1.7,2.4-3.3v-1.2c0-1.9-1.5-3.4-3.4-3.4L39.8,18.7   L39.8,18.7z M53.5,22.1v1.2c0,0.8-0.7,1.4-1.4,1.4H39.8c-0.8,0-1.4-0.6-1.4-1.4v-1.2c0-0.8,0.7-1.4,1.4-1.4H52   C52.8,20.7,53.5,21.3,53.5,22.1z"></path>
</g>
</svg>
