<?xml version="1.0" encoding="UTF-8"?>
<!-- Generator: Adobe Illustrator 26.2.1, SVG Export Plug-In . SVG Version: 6.00 Build 0)  -->
<svg xmlns="http://www.w3.org/2000/svg" xmlns:xlink="http://www.w3.org/1999/xlink" version="1.1" id="Icons" x="0px" y="0px" viewBox="0 0 90 90" style="enable-background:new 0 0 90 90;" xml:space="preserve">
<style type="text/css">
	.st0{fill:#E9E7E5;}
	.st1{fill:#9AB874;}
</style>
<circle class="st0" cx="45" cy="45" r="45"></circle>
<path class="st1" d="M28.3,56.4c2,1.8,4.2,4,5.9,6.5c0,0,0.1,0,0.1,0.1c2.8,4.8,8.1,8,14,8c0.5,0,0.9-0.4,0.9-0.9s-0.4-0.9-0.9-0.9  c-3.4,0-6.5-1.2-8.9-3.1c0.3-1.4,0.8-2.7,1.5-3.9c1.3,1.1,2.9,1.8,4.6,1.8c1.9,0,3.6-0.7,4.9-2c2.1-2.1,3.2-5.1,3.8-7.7l4.7,3.1  c0.2,0.1,0.3,0.2,0.5,0.2s0.4-0.1,0.5-0.2l13.3-8.9c0.3-0.2,0.4-0.5,0.4-0.8V31c0,0,0,0,0-0.1c0-0.1,0-0.2-0.1-0.3  c0,0,0-0.1-0.1-0.1c0,0,0,0,0,0c-0.1-0.1-0.2-0.2-0.3-0.3c0,0,0,0,0,0h0c0,0,0,0,0,0L60,21.3c-0.3-0.2-0.7-0.2-1,0l-13.3,8.9  c0,0,0,0,0,0l0,0c0,0,0,0,0,0c-0.1,0.1-0.2,0.1-0.3,0.3c0,0,0,0,0,0c0,0,0,0.1,0,0.1c0,0.1-0.1,0.2-0.1,0.3c0,0,0,0,0,0.1v18.2  c-1.7,0.6-3.3,1.5-4.6,2.8c-1.1,1.1-1.8,2.5-2,4.1c-0.1,0.5,0.3,1,0.8,1.1c0.5,0.1,1-0.3,1.1-0.8c0.1-1.1,0.6-2.2,1.5-3  c3.1-3.1,8.8-3.7,11-3.8c-0.1,2.2-0.6,7.8-3.8,11c-1,1-2.2,1.5-3.6,1.5c-1.4,0-2.6-0.5-3.6-1.5c3-3.9,7.4-6.2,7.4-6.2  c0.5-0.2,0.7-0.8,0.4-1.3s-0.8-0.7-1.3-0.4c-0.4,0.2-8.6,4.4-10.8,11.9c-2.4-2.6-3.9-6.1-3.9-9.9v-11c4.4-0.5,7.8-4.2,7.8-8.7  c0-8.1-7.8-15.6-8.1-15.9c-0.4-0.3-0.9-0.3-1.3,0c-0.3,0.3-8.1,7.8-8.1,15.9c0,3.2,1.8,6.2,4.6,7.7c0.5,0.2,1,0.1,1.3-0.4  c0.2-0.5,0.1-1-0.4-1.3c-2.2-1.2-3.6-3.5-3.6-6.1c0-6,5.1-11.9,6.9-13.9c1.8,1.9,6.9,7.8,6.9,13.9c0,3.5-2.6,6.3-5.9,6.8V31.1  c0-0.5-0.4-0.9-0.9-0.9S32,30.6,32,31.1v23.7c0,1,0.1,1.9,0.3,2.8c-4.5-4.7-9.6-7.6-9.8-7.8c-0.4-0.3-1-0.1-1.3,0.4  c-0.3,0.5-0.1,1,0.4,1.3c0,0,2.5,1.4,5.4,3.8c-1.7,1.1-4.4,1.4-5.7,0.1c-2.4-2.4-2.8-6.6-2.9-8.4c1.9,0.1,6.1,0.6,8.4,2.9  c0.3,0.3,0.5,0.6,0.7,1c0.2,0.5,0.8,0.7,1.3,0.4c0.5-0.2,0.7-0.8,0.4-1.3c-0.3-0.6-0.6-1.1-1.1-1.5c-3.7-3.7-10.5-3.5-10.7-3.5  c-0.5,0-0.9,0.4-0.9,0.9c0,0.3-0.1,7.1,3.5,10.7c1,1,2.4,1.5,3.9,1.5C25.3,58,27.1,57.4,28.3,56.4L28.3,56.4z M59.5,23.2L71.1,31  l-11.6,7.8L47.8,31L59.5,23.2z M47.1,48.6V32.7l11.4,7.6V51c0,0.5,0.4,0.9,0.9,0.9s0.9-0.4,0.9-0.9V40.4l11.4-7.6v14.4l-12.4,8.3  l-4.8-3.2c0,0,0,0,0,0c0.3-1.9,0.2-3.4,0.2-3.5c0-0.5-0.4-0.9-0.9-0.9C53.7,47.7,50.5,47.6,47.1,48.6L47.1,48.6z"></path>
</svg>
