<?xml version="1.0" encoding="UTF-8"?>
<!-- Generator: Adobe Illustrator 26.2.1, SVG Export Plug-In . SVG Version: 6.00 Build 0)  -->
<svg xmlns="http://www.w3.org/2000/svg" xmlns:xlink="http://www.w3.org/1999/xlink" version="1.1" id="Icons" x="0px" y="0px" viewBox="0 0 90 90" style="enable-background:new 0 0 90 90;" xml:space="preserve">
<style type="text/css">
	.st0{fill:#E9E7E5;}
	.st1{fill:#9AB874;}
</style>
<circle class="st0" cx="45" cy="45" r="45"></circle>
<path class="st1" d="M24.7,44.7c0.2,0.3,0.5,0.5,0.8,0.5s0.7-0.2,0.8-0.5l2.5-4.5l4.5-2.5c0.3-0.2,0.5-0.5,0.5-0.8s-0.2-0.7-0.5-0.8  l-4.5-2.5L26.4,29c-0.3-0.6-1.4-0.6-1.7,0l-2.5,4.5L17.7,36c-0.3,0.2-0.5,0.5-0.5,0.8s0.2,0.7,0.5,0.8l4.5,2.5  C22.3,40.2,24.7,44.7,24.7,44.7z M23.4,35.1c0.2-0.1,0.3-0.2,0.4-0.4l1.8-3.2l1.8,3.2c0.1,0.2,0.2,0.3,0.4,0.4l3.2,1.8l-3.2,1.8  c-0.2,0.1-0.3,0.2-0.4,0.4l-1.8,3.2L23.8,39c-0.1-0.2-0.2-0.3-0.4-0.4l-3.2-1.8L23.4,35.1z"></path>
<path class="st1" d="M32.3,25.9l2.9,1.6l1.6,2.9c0.2,0.3,0.5,0.5,0.8,0.5s0.7-0.2,0.8-0.5l1.6-2.9l2.9-1.6c0.3-0.2,0.5-0.5,0.5-0.8  s-0.2-0.7-0.5-0.8l-2.9-1.6l-1.6-2.9c-0.3-0.6-1.3-0.6-1.7,0l-1.6,2.9l-2.9,1.6c-0.3,0.2-0.5,0.5-0.5,0.8S32,25.7,32.3,25.9z   M36.4,24.1c0.2-0.1,0.3-0.2,0.4-0.4l0.9-1.6l0.9,1.6c0.1,0.2,0.2,0.3,0.4,0.4l1.6,0.9l-1.6,0.9c-0.2,0.1-0.3,0.2-0.4,0.4l-0.9,1.6  l-0.9-1.6c-0.1-0.2-0.2-0.3-0.4-0.4L34.7,25L36.4,24.1z"></path>
<path class="st1" d="M51.9,27l-8.8,8.8c0,0,0,0,0,0c0,0,0,0,0,0l-9.6,9.6c-1.3,1.3-2.2,2.8-2.9,4.4c-0.2,0.5,0,1.1,0.5,1.2  c0.5,0.2,1.1,0,1.2-0.5c0.6-1.4,1.4-2.7,2.5-3.8l8.9-8.9l17.4,17.4l-8.9,8.9c-0.4,0.4-0.4,1,0,1.4c0.2,0.2,0.4,0.3,0.7,0.3  s0.5-0.1,0.7-0.3l18.4-18.4c2.7-2.7,4.2-6.3,4.2-10.1s-1.5-7.4-4.2-10.1C66.5,21.5,57.5,21.5,51.9,27L51.9,27z M70.7,45.8l-8.1,8.1  L45.1,36.5l8.1-8.1c4.8-4.8,12.6-4.8,17.4,0c2.3,2.3,3.6,5.4,3.6,8.7S73,43.5,70.7,45.8z"></path>
<path class="st1" d="M50.4,52.6c-0.3-0.1-7.3-2.4-12.3,2.6c-1.4,1.4-2.4,2.9-3,4.4c-0.5-1.3-1.4-2.7-2.6-3.9  c-5.4-5.4-12.4-3.1-12.7-3c-0.3,0.1-0.5,0.3-0.6,0.6c-0.1,0.3-2.4,7.3,2.6,12.3c3.2,3.2,6.8,4,9.4,4c2.1,0,3.5-0.5,3.7-0.5  c0,0,0,0,0,0c0.1,0,0.1-0.1,0.2-0.1c0,0,0.1,0,0.1,0.1c0,0,0,0,0,0c0.1,0,1.7,0.6,3.9,0.6c2.5,0,5.9-0.7,8.8-3.6  c5.4-5.4,3.1-12.4,3-12.7C50.9,52.9,50.7,52.7,50.4,52.6L50.4,52.6z M34.2,64.8c0,0.5,0,0.9-0.1,1.3l-6.5-6.5c-0.4-0.4-1-0.4-1.4,0  c-0.4,0.4-0.4,1,0,1.4l6.5,6.5c-2.2,0.3-6.1,0.1-9.5-3.3c-3.4-3.4-2.6-8.3-2.3-9.8c1.5-0.4,6.4-1.1,10.2,2.7c2.3,2.3,3,5.1,3,7.2  C34.2,64.4,34.2,64.6,34.2,64.8L34.2,64.8z M46.7,64.5c-3.1,3.1-7,3.2-9.1,2.9l6.5-6.5c0.4-0.4,0.4-1,0-1.4s-1-0.4-1.4,0L36.2,66  c0-0.3-0.1-0.7-0.1-1.1c0-0.3,0-0.6,0-0.9c0.1-2.2,0.8-5,3.4-7.6c3.4-3.4,8.3-2.6,9.8-2.3C49.7,55.8,50.5,60.7,46.7,64.5L46.7,64.5z  "></path>
</svg>
