<?xml version="1.0" encoding="UTF-8"?>
<!-- Generator: Adobe Illustrator 26.2.1, SVG Export Plug-In . SVG Version: 6.00 Build 0)  -->
<svg xmlns="http://www.w3.org/2000/svg" xmlns:xlink="http://www.w3.org/1999/xlink" version="1.1" id="Icons" x="0px" y="0px" viewBox="0 0 90 90" style="enable-background:new 0 0 90 90;" xml:space="preserve">
<style type="text/css">
	.st0{fill:#E9E7E5;}
	.st1{fill:#9AB874;}
</style>
<circle class="st0" cx="45" cy="45" r="45"></circle>
<g>
	<path class="st1" d="M72.9,40.9c0-0.5-0.5-0.9-1-0.9c-0.5,0-0.9,0.5-0.9,1l0.9,16c-2.7,4.1-15.3,7.7-27.4,7.7   c-12.6,0-23.8-4.4-26.3-8.5c-0.3-0.4-0.8-0.6-1.3-0.3c-0.4,0.3-0.6,0.8-0.3,1.3c3.2,5.2,15.7,9.4,27.9,9.4   c11.6,0,26.1-3.4,29.2-8.9c0.1-0.2,0.1-0.3,0.1-0.5L72.9,40.9L72.9,40.9z"></path>
	<path class="st1" d="M17.1,52.5C17.2,52.5,17.2,52.5,17.1,52.5c0.5,0,1-0.4,1-0.9l0.8-14.4c4,3.7,15.1,5.7,25.6,5.7   c13.2,0,27.2-3.1,27.2-8.8c0-0.1,0-0.3-0.1-0.4c-0.3-2.5-3.2-4.6-8.5-6.1c-0.7-1.2-2-2.1-3.5-2.1c-0.4,0-0.8,0.1-1.2,0.2   c-0.6-1.6-2.1-2.7-3.8-2.7c-0.6,0-1.2,0.1-1.7,0.4c-0.7-1.1-2-1.8-3.3-1.8c-0.6,0-1.1,0.1-1.7,0.4c-0.7-1.1-2-1.9-3.4-1.9   S41.7,20.8,41,22c-0.5-0.2-1.1-0.4-1.7-0.4c-1.4,0-2.6,0.7-3.3,1.8c-0.5-0.3-1.1-0.4-1.7-0.4c-1.7,0-3.2,1.1-3.8,2.7   c-0.4-0.1-0.8-0.2-1.2-0.2c-1.6,0-2.9,0.9-3.6,2.2c-5.3,1.6-8.2,3.7-8.3,6.2c0,0.1-0.1,0.2-0.1,0.3l-1,17.4   C16.2,52,16.6,52.5,17.1,52.5L17.1,52.5z M29.2,27.3c0.6,0,1.1,0.3,1.4,0.5c0.3,0.2,0.7,0.3,1,0.1c0.3-0.2,0.5-0.5,0.5-0.8   c0,0,0,0,0-0.1c0-1.2,1-2.1,2.2-2.1c0.5,0,1.1,0.2,1.5,0.6c0.2,0.2,0.6,0.3,0.9,0.2c0.3-0.1,0.5-0.3,0.6-0.6   c0.3-0.9,1.1-1.5,2.1-1.5c0.7,0,1.2,0.3,1.4,0.6c0.2,0.2,0.6,0.3,0.9,0.2c0.3-0.1,0.5-0.3,0.6-0.6c0.3-1,1.1-1.6,2.1-1.6   s1.8,0.7,2.1,1.6c0.1,0.3,0.3,0.6,0.6,0.6c0.3,0.1,0.6,0,0.9-0.2c0.3-0.3,0.8-0.6,1.4-0.6c1,0,1.8,0.6,2.1,1.5   c0.1,0.3,0.3,0.5,0.6,0.6c0.3,0.1,0.6,0,0.9-0.2c0.4-0.4,0.9-0.6,1.5-0.6c1.2,0,2.2,1,2.2,2.1c0,0,0,0.1,0,0.1   c0,0.4,0.2,0.7,0.5,0.8c0.3,0.2,0.7,0.1,1-0.1c0.3-0.2,0.7-0.5,1.4-0.5c1.2,0,2.2,1,2.2,2.2c0,0.4,0.2,0.7,0.6,0.9   c2.3,0.9,3.1,1.7,3.1,2.2c0,1.6-7.2,4.5-21,4.5s-21-2.9-21-4.5c0-0.4,0.7-1.2,2.8-2.1c0.2-0.1,0.4-0.3,0.5-0.4   c0.1-0.2,0.2-0.4,0.2-0.5C27,28.3,28,27.3,29.2,27.3L29.2,27.3z M22.3,30.9c-0.4,0.5-0.6,1-0.6,1.6c0,4.2,11.5,6.4,22.8,6.4   s22.8-2.2,22.8-6.4c0-0.5-0.2-1-0.5-1.5c1.9,1,3,2.1,3,3.1c0,0,0,0.1,0,0.1c0,0,0,0.1,0,0.1C69.5,37.5,59.2,41,44.5,41   c-14.9,0-25.3-3.6-25.3-6.9c0,0,0-0.1,0-0.1C19.2,33,20.3,31.9,22.3,30.9z"></path>
	<path class="st1" d="M33.7,34.1c0.5,0,0.9-0.4,0.9-0.9c0-0.7,0.6-1.3,1.3-1.3s1.3,0.6,1.3,1.3c0,0.5,0.4,0.9,0.9,0.9   s0.9-0.4,0.9-0.9c0-1.7-1.4-3.1-3.1-3.1s-3.1,1.4-3.1,3.1C32.8,33.7,33.2,34.1,33.7,34.1L33.7,34.1z"></path>
	<path class="st1" d="M51,34.7c0.5,0,0.9-0.4,0.9-0.9c0-0.7,0.6-1.3,1.3-1.3s1.3,0.6,1.3,1.3c0,0.5,0.4,0.9,0.9,0.9s0.9-0.4,0.9-0.9   c0-1.7-1.4-3.1-3.1-3.1S50,32,50,33.7C50,34.2,50.4,34.7,51,34.7L51,34.7z"></path>
	<path class="st1" d="M42.7,30.2c0.5,0,0.9-0.4,0.9-0.9c0-0.7,0.6-1.3,1.3-1.3s1.3,0.6,1.3,1.3c0,0.5,0.4,0.9,0.9,0.9   s0.9-0.4,0.9-0.9c0-1.7-1.4-3.1-3.1-3.1s-3.1,1.4-3.1,3.1C41.8,29.8,42.2,30.2,42.7,30.2L42.7,30.2z"></path>
	<path class="st1" d="M44.5,47.6c-0.9-0.9-2.2-1.6-3.7-1.6c-1.6,0-3,0.7-4,1.9c-1.1,1.3-1.5,3.1-1.2,4.9c1,4.7,6.6,8.6,8.4,9.3   c0.1,0.1,0.2,0.1,0.3,0.1c0.1,0,0.1,0,0.1,0c0,0,0,0,0,0s0,0,0,0c0,0,0.1,0,0.1,0c0.1,0,0.2-0.1,0.3-0.1c1.8-0.8,7.4-4.6,8.4-9.3   c0.4-1.8-0.1-3.6-1.2-4.9c-1-1.2-2.4-1.9-4-1.9C46.7,45.9,45.4,46.7,44.5,47.6z M51.5,52.4c-0.8,3.8-5.6,7.1-7,7.9   c-1.4-0.8-6.2-4.1-7-7.9c-0.2-1.2,0-2.5,0.8-3.4c0.6-0.8,1.5-1.2,2.5-1.2c1.3,0,2.4,0.9,2.9,1.7c0,0,0.1,0.1,0.1,0.1c0,0,0,0,0,0   c0.1,0.1,0.1,0.2,0.2,0.2c0,0,0,0,0,0c0,0,0,0,0,0c0.1,0,0.2,0.1,0.2,0.1c0.1,0,0.1,0,0.2,0c0.1,0,0.1,0,0.2,0c0.1,0,0.2,0,0.2-0.1   c0,0,0,0,0.1,0c0,0,0,0,0,0c0.1-0.1,0.2-0.1,0.2-0.2c0,0,0,0,0,0c0,0,0.1-0.1,0.1-0.1c0.5-0.8,1.6-1.7,2.9-1.7c1,0,1.9,0.4,2.5,1.2   C51.5,49.9,51.8,51.2,51.5,52.4L51.5,52.4z"></path>
</g>
</svg>
