<svg xmlns="http://www.w3.org/2000/svg" width="186.524" height="68.392" viewBox="0 0 186.524 68.392">
  <g id="waume-logo-dag" transform="translate(0 0)">
    <path id="Path_1" data-name="Path 1" d="M81.835,118.712a.753.753,0,0,0-1.506,0v4.918h-.11a3.318,3.318,0,0,0-3.3-2.735c-2.184,0-4.13,1.524-4.13,5.139,0,3.763,1.909,5.011,3.983,5.029a3.415,3.415,0,0,0,3.56-2.753h.092l.165,2.019a.736.736,0,0,0,1.468-.092l-.22-1.927v-9.6Zm-4.552,10.645c-2.019,0-2.992-1.285-2.992-3.3,0-1.946.918-3.4,2.918-3.4a3.026,3.026,0,0,1,3.193,3.3c0,1.615-.661,3.4-3.12,3.4Z" transform="translate(-40.856 -66.213)" fill="#343333"/>
    <path id="Path_2" data-name="Path 2" d="M103.075,124.611c-3.1,0-4.68,2.092-4.68,5.084,0,2.973,1.578,5.084,4.68,5.084s4.68-2.111,4.68-5.1c0-2.973-1.578-5.065-4.68-5.065Zm0,8.479c-1.946,0-3.194-1.046-3.194-3.414,0-2.349,1.248-3.4,3.194-3.4s3.193,1.046,3.193,3.4C106.268,132.044,105.02,133.09,103.075,133.09Z" transform="translate(-55.231 -69.947)" fill="#343333"/>
    <path id="Path_3" data-name="Path 3" d="M131.166,124.375l-1.817.477a7.676,7.676,0,0,0-2.294-.4c-2.514,0-4.185,1.248-4.185,3.4a2.8,2.8,0,0,0,1.45,2.643,1.507,1.507,0,0,0-1.377,1.505c0,.863.569,1.413,1.542,1.542v.147a2,2,0,0,0-2.074,1.927c0,1.8,1.321,2.569,4.643,2.569,3.873,0,5.029-1.487,5.029-3.23,0-1.964-1.395-2.5-3.01-2.5h-3.561c-.789,0-1.193-.349-1.193-.844a.977.977,0,0,1,.587-.863,6.32,6.32,0,0,0,2.257.367c2.221,0,4.185-.9,4.185-3.157a1.968,1.968,0,0,0-1.285-1.909l.055-.22,1.23.165a.84.84,0,0,0,1.028-.826.86.86,0,0,0-1.212-.789Zm-6.148,9.654h3.763c.7,0,1.8-.018,1.8.973,0,1.009-1.211,1.578-3.542,1.578-1.946,0-3.175-.312-3.175-1.413a1.224,1.224,0,0,1,1.156-1.137Zm2.056-4.423c-1.743,0-2.79-.44-2.79-1.743,0-1.45,1.193-1.853,2.845-1.853,1.468,0,2.79.5,2.79,1.835,0,1.652-1.872,1.762-2.845,1.762Z" transform="translate(-68.712 -69.784)" fill="#343333"/>
    <path id="Path_4" data-name="Path 4" d="M151.816,128.943c-1.8-.165-2.532-.349-2.532-1.377,0-1.1,1.3-1.321,2.422-1.321,1.431,0,2.257.349,2.532,1.028.165.4.385.551.679.551a.809.809,0,0,0,.789-.844c0-1.45-1.633-2.368-3.891-2.368-2.349,0-3.982.9-3.982,2.918s1.3,2.551,3.542,2.753c1.193.092,3.083.128,3.083,1.284,0,.973-.808,1.578-2.772,1.578-1.633,0-2.165-.422-2.478-.844-.275-.349-.44-.734-.9-.734a.815.815,0,0,0-.752.844c0,1.046,1.156,2.386,4.148,2.386,2.294,0,4.2-.991,4.2-3.267s-2.2-2.422-4.093-2.588Z" transform="translate(-82.827 -69.947)" fill="#343333"/>
    <path id="Path_5" data-name="Path 5" d="M188.663,132.6v-4.24c0-2.68-1.6-3.708-4.056-3.708-2.257,0-3.817,1.193-3.817,2.661a.692.692,0,0,0,.734.789c.533,0,.606-.422.808-.826.239-.477.7-.955,2.166-.955,1.5,0,2.643.661,2.643,2.129v1.633h-.11a3.573,3.573,0,0,0-2.937-1.3c-2.532,0-3.689,1.211-3.689,2.9,0,2.074,1.413,3.065,3.4,3.065a3.345,3.345,0,0,0,3.3-1.853h.092l.128,1.193a.785.785,0,0,0,.753.679.756.756,0,0,0,.752-.844l-.165-1.321Zm-4.221.605c-1.413,0-2.532-.349-2.532-1.542,0-1.12,1.119-1.5,2.569-1.5,1.487,0,2.735.532,2.735,1.431,0,.973-1.321,1.615-2.772,1.615Z" transform="translate(-101.265 -69.97)" fill="#343333"/>
    <path id="Path_6" data-name="Path 6" d="M208.943,124.756c-1.1,0-2.093.991-2.515,2.551h-.11l-.073-1.872a.725.725,0,0,0-.716-.7.734.734,0,0,0-.734.771l.11,1.6V134.1a.771.771,0,0,0,1.542,0v-5.176a2.419,2.419,0,0,1,2.4-2.111,1,1,0,0,0,.936-1.064.884.884,0,0,0-.844-.991Z" transform="translate(-114.955 -70.018)" fill="#343333"/>
    <path id="Path_7" data-name="Path 7" d="M226.847,129.058a4.072,4.072,0,0,0-4.442-4.4c-2.79,0-4.68,1.854-4.68,5.047,0,3.359,1.835,5.121,4.753,5.121,2.148,0,4.166-1.248,4.166-2.368a.661.661,0,0,0-.661-.716c-.385,0-.605.239-.973.532a3.62,3.62,0,0,1-2.533.881,2.958,2.958,0,0,1-3.212-2.808h6.313a1.124,1.124,0,0,0,1.266-1.285Zm-7.6.092a2.92,2.92,0,0,1,3.157-2.9c1.89,0,2.955,1.046,2.937,2.735l-6.093.165Z" transform="translate(-122.214 -69.97)" fill="#343333"/>
    <path id="Path_8" data-name="Path 8" d="M260.705,124.375l-1.817.477a7.678,7.678,0,0,0-2.294-.4c-2.514,0-4.185,1.248-4.185,3.4a2.8,2.8,0,0,0,1.45,2.643,1.507,1.507,0,0,0-1.377,1.505c0,.863.569,1.413,1.542,1.542v.147a2,2,0,0,0-2.074,1.927c0,1.8,1.321,2.569,4.643,2.569,3.873,0,5.029-1.487,5.029-3.23,0-1.964-1.4-2.5-3.01-2.5h-3.561c-.789,0-1.193-.349-1.193-.844a.977.977,0,0,1,.587-.863,6.32,6.32,0,0,0,2.257.367c2.221,0,4.185-.9,4.185-3.157a1.968,1.968,0,0,0-1.285-1.909l.055-.22,1.23.165a.84.84,0,0,0,1.028-.826.86.86,0,0,0-1.212-.789Zm-6.149,9.654h3.763c.7,0,1.8-.018,1.8.973,0,1.009-1.211,1.578-3.542,1.578-1.945,0-3.175-.312-3.175-1.413A1.224,1.224,0,0,1,254.557,134.029Zm2.056-4.423c-1.743,0-2.79-.44-2.79-1.743,0-1.45,1.193-1.853,2.845-1.853,1.468,0,2.79.5,2.79,1.835C259.457,129.5,257.585,129.606,256.612,129.606Z" transform="translate(-141.425 -69.784)" fill="#343333"/>
    <path id="Path_9" data-name="Path 9" d="M282.833,124.756c-1.1,0-2.092.991-2.514,2.551h-.11l-.073-1.872a.725.725,0,0,0-.716-.7.734.734,0,0,0-.734.771l.11,1.6V134.1a.771.771,0,0,0,1.542,0v-5.176a2.419,2.419,0,0,1,2.4-2.111,1,1,0,0,0,.936-1.064.884.884,0,0,0-.844-.991Z" transform="translate(-156.431 -70.018)" fill="#343333"/>
    <path id="Path_10" data-name="Path 10" d="M300.737,129.058a4.071,4.071,0,0,0-4.442-4.4c-2.79,0-4.68,1.854-4.68,5.047,0,3.359,1.835,5.121,4.753,5.121,2.148,0,4.166-1.248,4.166-2.368a.661.661,0,0,0-.661-.716c-.385,0-.605.239-.973.532a3.62,3.62,0,0,1-2.533.881,2.958,2.958,0,0,1-3.212-2.808h6.313a1.124,1.124,0,0,0,1.266-1.285Zm-7.6.092a2.92,2.92,0,0,1,3.157-2.9c1.89,0,2.955,1.046,2.936,2.735l-6.093.165Z" transform="translate(-163.69 -69.97)" fill="#343333"/>
    <path id="Path_11" data-name="Path 11" d="M323.975,132.6v-4.24c0-2.68-1.6-3.708-4.056-3.708-2.257,0-3.817,1.193-3.817,2.661a.692.692,0,0,0,.734.789c.532,0,.605-.422.807-.826.239-.477.7-.955,2.166-.955,1.5,0,2.643.661,2.643,2.129v1.633h-.11a3.573,3.573,0,0,0-2.937-1.3c-2.533,0-3.689,1.211-3.689,2.9,0,2.074,1.413,3.065,3.4,3.065a3.346,3.346,0,0,0,3.3-1.853h.092l.128,1.193a.785.785,0,0,0,.753.679.756.756,0,0,0,.752-.844l-.165-1.321Zm-4.221.605c-1.413,0-2.532-.349-2.532-1.542,0-1.12,1.12-1.5,2.569-1.5,1.487,0,2.734.532,2.734,1.431,0,.973-1.321,1.615-2.772,1.615Z" transform="translate(-177.218 -69.97)" fill="#343333"/>
    <path id="Path_12" data-name="Path 12" d="M343.4,129.837a.872.872,0,0,0-.514.184,2.116,2.116,0,0,1-1.3.4c-.7,0-1.065-.532-1.065-1.449v-5.121l2.019.073a.835.835,0,1,0,0-1.67l-2.037.055.018-1.6a.762.762,0,1,0-1.523-.037l.018,1.634-.826-.037a.8.8,0,0,0-.844.808.781.781,0,0,0,.863.826l.771-.055v5.506c0,1.982,1.009,2.808,2.367,2.808,1.156,0,2.606-.679,2.606-1.652a.613.613,0,0,0-.551-.679Z" transform="translate(-189.361 -67.318)" fill="#343333"/>
    <path id="Path_13" data-name="Path 13" d="M35.509,37.555l11.8-22.693c2.482-4.911.253-7.648-3.293-7.648-3.141,0-5.723,1.57-7.446,5.573L29.886,27.627h-.355l.457-15.1c.152-3.191-1.116-5.268-4.407-5.268s-5.52,2.077-6.991,5.268l-7.14,15.1h-.3l.709-14.841c.3-4-1.468-5.573-4.709-5.573A7.169,7.169,0,0,0,0,14.862L.51,37.555c.05,3.748,2.177,5.875,5.825,5.875,3.6,0,6.786-2.229,8.611-6.129l6.127-12.714h.407l-.3,12.714c-.152,3.85,1.925,6.129,5.57,6.129s6.789-2.178,8.764-5.875Z" transform="translate(0 -4.049)" fill="#343333"/>
    <path id="Path_14" data-name="Path 14" d="M102.722,38.719l1.268-2.684h8.964l-.05,1.924c-.152,4.053,2.178,5.319,5.066,5.319,4.355,0,6.684-3.241,6.33-8.914l-1.316-20.059c-.4-5.166-3.14-7.091-7.4-7.091-4.153,0-7.8,1.924-10.739,7.091L92.744,35.63c-2.027,3.648-.861,7.648,3.546,7.648C99.126,43.278,101.3,41.81,102.722,38.719Zm9.422-19.6h1.216l-.2,8.559H107.99Z" transform="translate(-51.518 -4.05)" fill="#343333"/>
    <path id="Path_15" data-name="Path 15" d="M380.809,8.6H366.373c-3.6,0-6.174,3.125-6.935,6.064l-5.773,23.35c-.761,2.937.4,5.534,4,5.534h15.093a6.765,6.765,0,0,0,6.639-6.193,3.863,3.863,0,0,0-4.1-4.3h-9.623l1.06-3.861s6.33.193,6.989.193c2.886,0,5.011-1.906,5.011-4.59,0-1.623-1.216-2.534-2.989-2.534-.759,0-7.359.253-7.359.253l.888-3.731h8.964a6.535,6.535,0,0,0,6.678-5.925,3.849,3.849,0,0,0-4.1-4.254Z" transform="translate(-198.395 -4.829)" fill="#343333"/>
    <path id="Path_16" data-name="Path 16" d="M254.219,43.429a5.77,5.77,0,0,0,5.977-4.761l3.95-15.9h.1l.913,17.07a3.785,3.785,0,0,0,4.1,3.546,6.737,6.737,0,0,0,5.723-3.648l9.421-16.968h.1l-3.748,15.2c-.659,2.684.3,5.47,3.95,5.47,3.5,0,5.424-2.346,6.083-5.029l5.825-23.3c1.063-4.355-.765-7.887-5.93-7.887-4.964,0-7.85,2.584-10.789,8.055l-6.736,12.409-.609-12.409c-.2-5.573-1.823-8.055-6.786-8.055a9.948,9.948,0,0,0-9.927,7.852l-5.673,22.893c-.659,2.684.607,5.47,4.052,5.47Z" transform="translate(-140.329 -4.049)" fill="#343333"/>
    <path id="Path_17" data-name="Path 17" d="M205.987,10.089h0l1.955-1.775a.425.425,0,0,0-.3-.662l-4.682-1.168c-.338-.084-.64.147-.578.443l.969,2.7c-3.555-.23-5.617,2.716-6.348,5.633l-2.178,8.267c-.913,3.7-3.14,5.016-5.977,5.016-2.988,0-4.357-1.47-3.5-5.016l3.648-14.536a5.391,5.391,0,0,0-.268-3.891,3.778,3.778,0,0,0-1.488-1.477c-.007,0,1.955-1.774,1.955-1.774a.425.425,0,0,0-.3-.662L184.208.018c-.338-.084-.64.147-.578.443l.965,2.687c-3.423-.158-5.506,2.454-6.339,5.64L174.2,25.1c-2.33,9.218,3.178,14.234,12.9,14.234,9.825,0,15.765-4.863,18.147-14.234l2.483-9.636c.609-2.432.047-4.5-1.749-5.372Z" transform="translate(-97.485 0)" fill="#343333"/>
  </g>
</svg>
