<svg id="visual" viewBox="0 0 900 200" width="900" height="200" xmlns="http://www.w3.org/2000/svg" xmlns:xlink="http://www.w3.org/1999/xlink" version="1.1"><rect x="0" y="0" width="900" height="200" fill="#FBF2E0"></rect><path d="M0 105L37.5 109.3C75 113.7 150 122.3 225 120.7C300 119 375 107 450 93.7C525 80.3 600 65.7 675 62.8C750 60 825 69 862.5 73.5L900 78L900 0L862.5 0C825 0 750 0 675 0C600 0 525 0 450 0C375 0 300 0 225 0C150 0 75 0 37.5 0L0 0Z" fill="#ffffff" stroke-linecap="round" stroke-linejoin="miter"></path></svg>